<?xml version="1.0" standalone="no"?>
<!DOCTYPE svg PUBLIC "-//W3C//DTD SVG 20010904//EN"
 "http://www.w3.org/TR/2001/REC-SVG-20010904/DTD/svg10.dtd">
<svg version="1.0" xmlns="http://www.w3.org/2000/svg"
 width="512.000000pt" height="512.000000pt" viewBox="0 0 512.000000 512.000000"
 preserveAspectRatio="xMidYMid meet">
<metadata>
Created by potrace 1.14, written by Peter Selinger 2001-2017
</metadata>
<g transform="translate(0.000000,512.000000) scale(0.100000,-0.100000)"
fill="#000000" stroke="none">
<path d="M0 2560 l0 -2560 2560 0 2560 0 0 2560 0 2560 -2560 0 -2560 0 0
-2560z m2880 2035 c393 -66 730 -223 1027 -479 370 -319 602 -737 690 -1241
24 -140 24 -490 0 -630 -70 -403 -224 -734 -481 -1032 -319 -370 -737 -602
-1241 -690 -140 -24 -490 -24 -630 0 -403 70 -734 224 -1032 481 -370 319
-602 737 -690 1241 -24 140 -24 490 0 630 95 543 360 990 787 1322 264 205
638 361 965 402 50 6 104 13 120 15 65 9 395 -4 485 -19z"/>
</g>
</svg>
